<svg xmlns="http://www.w3.org/2000/svg" width="1000" height="640" viewBox="0 0 1000 640">
<rect width="1000" height="640" fill="#f5f2ec"/>
<text x="20" y="38" font-family="monospace" font-size="20" fill="#888">Zad — verification proof (IBM Plex Sans Arabic, OFL)</text>
<g transform="translate(20.0,110.0) scale(0.0760,-0.0760)"><path d="M568 0H39V135L383 563H56V698H560V563L215 135H568Z" fill="#0b1f2a"/></g>
<g transform="translate(66.1,110.0) scale(0.0760,-0.0760)"><path d="M457 0Q417 0 390.5 25.0Q364 50 357 92H351Q339 41 298.0 14.5Q257 -12 197 -12Q118 -12 76.0 30.0Q34 72 34 141Q34 224 94.5 264.5Q155 305 259 305H342V338Q342 376 322.0 398.5Q302 421 255 421Q211 421 185.0 402.0Q159 383 142 359L54 437Q86 484 134.5 510.5Q183 537 266 537Q378 537 434.0 488.0Q490 439 490 345V115H539V0ZM252 91Q289 91 315.5 107.0Q342 123 342 159V221H270Q183 221 183 162V147Q183 118 201.0 104.5Q219 91 252 91Z" fill="#0b1f2a"/></g>
<g transform="translate(109.4,110.0) scale(0.0760,-0.0760)"><path d="M391 88H386Q380 67 367.0 48.5Q354 30 335.5 16.5Q317 3 293.5 -4.5Q270 -12 245 -12Q145 -12 94.0 58.5Q43 129 43 263Q43 397 94.0 467.0Q145 537 245 537Q296 537 335.5 509.0Q375 481 386 437H391V740H539V0H391ZM294 108Q336 108 363.5 128.5Q391 149 391 185V340Q391 376 363.5 396.5Q336 417 294 417Q252 417 224.5 387.5Q197 358 197 308V217Q197 167 224.5 137.5Q252 108 294 108Z" fill="#0b1f2a"/></g>
<g transform="translate(173.5,110.0) scale(0.0760,-0.0760)"><path d="M-60 -90H-20Q71 -90 113.5 -53.0Q156 -16 155 70Q155 93 152.0 118.5Q149 144 144 173L123 306L232 323L247 230Q255 182 259.5 141.5Q264 101 264 75Q264 3 246.0 -55.0Q228 -113 192.0 -154.5Q156 -196 103.0 -218.0Q50 -240 -19 -240H-60ZM154 403Q128 403 111.5 419.0Q95 435 95 470Q95 505 111.5 521.0Q128 537 154 537H174Q200 537 216.5 521.0Q233 505 233 470Q233 435 216.5 419.0Q200 403 174 403Z" fill="#0b1f2a"/></g>
<g transform="translate(196.2,110.0) scale(0.0760,-0.0760)"><path d="M60 740H180V0H60Z" fill="#0b1f2a"/></g>
<g transform="translate(214.5,110.0) scale(0.0760,-0.0760)"><path d="M174 0Q104 0 67.0 35.0Q30 70 30 147V214H145V150H298Q365 150 365 202Q365 214 359.0 227.5Q353 241 340.0 258.0Q327 275 306.5 296.0Q286 317 256 345L157 437L259 547L340 467Q377 430 403.0 398.0Q429 366 445.0 335.0Q461 304 468.0 271.5Q475 239 475 202Q475 106 426.0 53.0Q377 0 288 0Z" fill="#0b1f2a"/></g>
<text x="980" y="180" font-family="monospace" font-size="15" fill="#888" text-anchor="end">Arabic (RTL, shaped + harakat):</text>
<g transform="translate(494.6,250.0) scale(0.0520,-0.0520)"><path d="M40 34Q40 98 47.0 142.0Q54 186 71.5 218.0Q89 250 119.0 273.0Q149 296 195 318L395 413H527L606 201Q617 170 633.5 160.0Q650 150 683 150H713V30L683 0Q617 0 579.0 20.5Q541 41 516 85L510 84V0H341Q280 0 243.0 30.5Q206 61 206 109Q206 144 229 175L225 180L202 170Q189 164 181.0 155.5Q173 147 168.5 131.5Q164 116 162.0 92.5Q160 69 160 34V-304H40ZM282 191Q282 171 297.5 160.5Q313 150 340 150H487L437 282L332 240Q282 220 282 191Z" fill="#0b1f2a"/></g>
<g transform="translate(531.7,250.0) scale(0.0520,-0.0520)"><path d="M-30 120 0 150H30Q110 150 110 220V363H220V220Q220 150 290 150H330V30L300 0Q220 0 178.5 32.5Q137 65 123 135H117Q103 65 69.0 32.5Q35 0 -30 0ZM234 -215Q208 -215 191.5 -199.0Q175 -183 175 -148Q175 -113 191.5 -97.0Q208 -81 234 -81H254Q280 -81 296.5 -97.0Q313 -113 313 -148Q313 -183 296.5 -199.0Q280 -215 254 -215ZM76 -215Q50 -215 33.5 -199.0Q17 -183 17 -148Q17 -113 33.5 -97.0Q50 -81 76 -81H96Q122 -81 138.5 -97.0Q155 -113 155 -148Q155 -183 138.5 -199.0Q122 -215 96 -215Z" fill="#0b1f2a"/></g>
<g transform="translate(548.8,250.0) scale(0.0520,-0.0520)"><path d="M-30 120 0 150H69Q125 150 169.5 151.5Q214 153 254.0 159.0Q294 165 332.0 177.0Q370 189 413 210L450 228V233L290 267L139 304V229H24V306Q24 377 54.5 410.0Q85 443 148 443Q156 443 164.5 442.0Q173 441 184.5 439.0Q196 437 212.0 433.0Q228 429 252 423L445 373Q485 362 531.0 356.0Q577 350 622 350H642V200H564L470 136Q404 91 351.5 64.5Q299 38 252.0 23.5Q205 9 161.0 4.5Q117 0 69 0H-30Z" fill="#0b1f2a"/></g>
<g transform="translate(581.2,250.0) scale(0.0520,-0.0520)"><path d="M-60 -90H-20Q71 -90 113.5 -53.0Q156 -16 155 70Q155 93 152.0 118.5Q149 144 144 173L123 306L232 323L247 230Q251 208 253.5 188.0Q256 168 258 150H350V30L320 0H258Q241 -111 170.5 -175.5Q100 -240 -19 -240H-60Z" fill="#0b1f2a"/></g>
<g transform="translate(599.4,250.0) scale(0.0520,-0.0520)"><path d="M-30 120 0 150H44Q82 150 94.5 164.5Q107 179 107 210V740H227V210Q227 103 185.5 52.0Q144 1 44 0H-30Z" fill="#0b1f2a"/></g>
<g transform="translate(614.3,250.0) scale(0.0520,-0.0520)"><path d="M60 740H180V0H60Z" fill="#0b1f2a"/></g>
<g transform="translate(639.0,250.0) scale(0.0520,-0.0520)"><path d="M346 -240Q192 -240 113.5 -168.5Q35 -97 35 34Q35 79 47.5 135.5Q60 192 82 245L178 217Q158 174 146.5 130.0Q135 86 135 54Q135 -9 180.0 -43.5Q225 -78 306 -78H386Q471 -78 511.0 -39.0Q551 0 551 83Q551 106 546.0 142.0Q541 178 534 210L514 303L622 324L641 232Q645 214 648.0 192.5Q651 171 653 150H743V30L713 0H651Q634 -123 559.5 -181.5Q485 -240 346 -240ZM336 298Q310 298 293.5 314.0Q277 330 277 365Q277 400 293.5 416.0Q310 432 336 432H356Q382 432 398.5 416.0Q415 400 415 365Q415 330 398.5 314.0Q382 298 356 298Z" fill="#0b1f2a"/></g>
<g transform="translate(677.7,250.0) scale(0.0520,-0.0520)"><path d="M-30 120 0 150H87Q86 156 86.0 162.0Q86 168 86 174Q86 295 226 376L290 413H422L501 201Q512 170 528.5 160.0Q545 150 578 150H608V30L578 0Q512 0 474.0 20.5Q436 41 411 85L405 84V0H278Q205 0 161.0 29.5Q117 59 99 104H90Q62 0 -30 0ZM177 188Q177 166 194.0 158.0Q211 150 235 150H382L332 282L241 246Q209 233 193.0 219.5Q177 206 177 188Z" fill="#0b1f2a"/></g>
<g transform="translate(709.3,250.0) scale(0.0520,-0.0520)"><path d="M-30 120 0 150H69Q125 150 169.5 151.5Q214 153 254.0 159.0Q294 165 332.0 177.0Q370 189 413 210L450 228V233L290 267L139 304V229H24V306Q24 377 54.5 410.0Q85 443 148 443Q156 443 164.5 442.0Q173 441 184.5 439.0Q196 437 212.0 433.0Q228 429 252 423L445 373Q485 362 531.0 356.0Q577 350 622 350H642V200H564L470 136Q404 91 351.5 64.5Q299 38 252.0 23.5Q205 9 161.0 4.5Q117 0 69 0H-30Z" fill="#0b1f2a"/></g>
<g transform="translate(741.6,250.0) scale(0.0520,-0.0520)"><path d="M-60 -90H-20Q71 -90 113.5 -53.0Q156 -16 155 70Q155 93 152.0 118.5Q149 144 144 173L123 306L232 323L247 230Q251 208 253.5 188.0Q256 168 258 150H350V30L320 0H258Q241 -111 170.5 -175.5Q100 -240 -19 -240H-60Z" fill="#0b1f2a"/></g>
<g transform="translate(759.8,250.0) scale(0.0520,-0.0520)"><path d="M-30 120 0 150H44Q82 150 94.5 164.5Q107 179 107 210V740H227V210Q227 103 185.5 52.0Q144 1 44 0H-30Z" fill="#0b1f2a"/></g>
<g transform="translate(774.8,250.0) scale(0.0520,-0.0520)"><path d="M60 740H180V0H60Z" fill="#0b1f2a"/></g>
<g transform="translate(799.5,250.0) scale(0.0520,-0.0520)"><path d="M500 0Q409 1 367.0 44.5Q325 88 325 164V169H319Q311 134 300.5 110.0Q290 86 274.0 71.5Q258 57 236.0 50.5Q214 44 184 44Q112 44 76.0 82.5Q40 121 40 191Q40 273 85.5 324.5Q131 376 208 414L320 470V525H440V204Q440 174 453.5 162.0Q467 150 500 150H530V30ZM217 194Q275 194 297.5 205.0Q320 216 320 245V365L246 330Q219 317 199.5 307.0Q180 297 166.5 286.5Q153 276 146.5 265.0Q140 254 140 240Q140 215 156.5 204.5Q173 194 217 194Z" fill="#0b1f2a"/></g>
<g transform="translate(827.1,250.0) scale(0.0520,-0.0520)"><path d="M-30 120 0 150H25Q105 150 105 220V740H225V220Q225 150 295 150H330V30L300 0Q218 0 175.0 32.5Q132 65 118 135H112Q99 65 66.0 32.5Q33 0 -30 0Z" fill="#0b1f2a"/></g>
<g transform="translate(844.2,250.0) scale(0.0520,-0.0520)"><path d="M-30 120 0 150H44Q82 150 94.5 164.5Q107 179 107 210V740H227V210Q227 103 185.5 52.0Q144 1 44 0H-30Z" fill="#0b1f2a"/></g>
<g transform="translate(859.2,250.0) scale(0.0520,-0.0520)"><path d="M60 740H180V0H60Z" fill="#0b1f2a"/></g>
<g transform="translate(883.9,250.0) scale(0.0520,-0.0520)"><path d="M40 34Q40 98 47.0 142.0Q54 186 71.5 218.0Q89 250 119.0 273.0Q149 296 195 318L395 413H527L606 201Q617 170 633.5 160.0Q650 150 683 150H713V30L683 0Q617 0 579.0 20.5Q541 41 516 85L510 84V0H341Q280 0 243.0 30.5Q206 61 206 109Q206 144 229 175L225 180L202 170Q189 164 181.0 155.5Q173 147 168.5 131.5Q164 116 162.0 92.5Q160 69 160 34V-304H40ZM282 191Q282 171 297.5 160.5Q313 150 340 150H487L437 282L332 240Q282 220 282 191Z" fill="#0b1f2a"/></g>
<g transform="translate(921.0,250.0) scale(0.0520,-0.0520)"><path d="M-30 120 0 150H1Q48 150 72.0 161.5Q96 173 110 202L149 283L248 235L213 161Q237 150 262.0 143.0Q287 136 313 136Q356 136 375.0 154.5Q394 173 394 220V283H504V220Q504 178 516.0 159.0Q528 140 560 140H570Q596 140 611.5 159.0Q627 178 627 220V323H737V220Q737 150 807 150H847V30L817 0Q741 0 701.5 30.5Q662 61 651 127H645Q639 55 609.0 21.5Q579 -12 529 -12Q476 -12 447.0 21.5Q418 55 407 127H401Q393 55 365.5 21.5Q338 -12 293 -12Q264 -12 235.5 -1.5Q207 9 161 36L141 48Q110 19 70.5 9.5Q31 0 -30 0Z" fill="#0b1f2a"/></g>
<g transform="translate(965.0,250.0) scale(0.0520,-0.0520)"><path d="M-30 120 0 150H29Q65 150 88.5 153.0Q112 156 126.5 163.5Q141 171 146.5 182.5Q152 194 152 211Q152 226 149.5 249.5Q147 273 140 311L123 404L232 422L247 329Q252 302 255.0 269.0Q258 236 258 211Q258 102 204.5 51.0Q151 0 29 0H-30ZM145 -215Q119 -215 102.5 -199.0Q86 -183 86 -148Q86 -113 102.5 -97.0Q119 -81 145 -81H165Q191 -81 207.5 -97.0Q224 -113 224 -148Q224 -183 207.5 -199.0Q191 -215 165 -215Z" fill="#0b1f2a"/></g>
<g transform="translate(495.6,330.0) scale(0.0460,-0.0460)"><path d="M456 0Q410 0 378.5 7.5Q347 15 327.5 32.5Q308 50 299.0 77.5Q290 105 290 146V163H285Q271 118 237.5 95.5Q204 73 157 73Q90 73 52.5 109.0Q15 145 15 211Q15 239 24.0 263.5Q33 288 53.5 311.5Q74 335 106.0 358.5Q138 382 184 408L285 466V516H355V156Q355 115 376.0 100.5Q397 86 441 86H476V20ZM172 159Q233 159 259.0 176.5Q285 194 285 239V385L184 331Q131 302 108.0 277.5Q85 253 85 221Q85 189 104.5 174.0Q124 159 172 159Z" fill="#0b1f2a"/></g>
<g transform="translate(517.5,330.0) scale(0.0460,-0.0460)"><path d="M-20 66 0 86H35Q120 86 120 171V740H194V171Q194 86 279 86H314V20L294 0Q152 0 128 98H123Q112 43 80.0 21.5Q48 0 -20 0Z" fill="#0b1f2a"/></g>
<g transform="translate(531.9,330.0) scale(0.0460,-0.0460)"><path d="M-20 66 0 86H29Q77 86 98.5 108.0Q120 130 120 178V740H194V178Q194 86 154.5 43.0Q115 0 29 0H-20Z" fill="#0b1f2a"/></g>
<g transform="translate(544.3,330.0) scale(0.0460,-0.0460)"><path d="M75 740H149V0H75Z" fill="#0b1f2a"/></g>
<g transform="translate(572.3,319.6) scale(0.0460,-0.0460)"><path d="M0 403 114 457V461Q94 473 82.5 492.0Q71 511 71 534Q71 573 95.5 598.5Q120 624 159 624Q194 624 218.0 598.0Q242 572 242 534Q242 495 220.5 466.5Q199 438 154 416L23 354ZM122 537Q122 514 157 495L171 487Q192 504 192 529Q192 546 181.0 557.5Q170 569 153 569Q139 569 130.5 560.0Q122 551 122 537Z" fill="#0b1f2a"/></g>
<g transform="translate(565.4,330.0) scale(0.0460,-0.0460)"><path d="M306 -240Q180 -240 110.0 -174.0Q40 -108 40 10Q40 56 52.5 107.5Q65 159 87 210L149 191Q130 149 118.0 104.0Q106 59 106 19Q106 -62 151.0 -106.0Q196 -150 276 -150H336Q383 -150 415.5 -139.5Q448 -129 468.0 -104.5Q488 -80 497.0 -40.5Q506 -1 506 56V740H580V56Q580 -97 514.0 -168.5Q448 -240 306 -240Z" fill="#0b1f2a"/></g>
<g transform="translate(595.6,330.0) scale(0.0460,-0.0460)"><path d="M34 -154H87Q196 -154 255.5 -113.5Q315 -73 329 0H212Q132 0 88.0 42.0Q44 84 44 160Q44 205 57.5 245.0Q71 285 95.0 314.5Q119 344 152.5 361.5Q186 379 226 379Q309 379 356.5 305.0Q404 231 404 97V86H450V20L430 0H395Q373 -115 296.5 -177.5Q220 -240 87 -240H34ZM114 170Q114 126 137.5 106.0Q161 86 212 86H334V117Q334 198 303.5 245.5Q273 293 220 293Q169 293 141.5 259.0Q114 225 114 170Z" fill="#0b1f2a"/></g>
<g transform="translate(616.3,330.0) scale(0.0460,-0.0460)"><path d="M-20 66 0 86H35Q54 86 68.5 89.5Q83 93 95.0 102.0Q107 111 117.5 126.0Q128 141 140 165L183 249L240 220L187 120L201 111Q233 90 263.5 82.0Q294 74 323 74Q370 74 392.5 96.0Q415 118 415 171V249H485V171Q485 117 500.0 95.5Q515 74 552 74H572Q636 74 636 138Q636 154 634.5 179.5Q633 205 628 234L620 289L689 298L696 245Q700 214 702.0 186.0Q704 158 704 138Q704 69 667.0 28.5Q630 -12 562 -12Q444 -12 424 88H419Q409 40 380.5 14.0Q352 -12 306 -12Q246 -12 173 35L142 55Q113 23 76.0 11.5Q39 0 -20 0Z" fill="#0b1f2a"/></g>
<g transform="translate(651.4,330.0) scale(0.0460,-0.0460)"><path d="M242 455 23 354 0 403 219 504Z" fill="#0b1f2a"/></g>
<g transform="translate(650.7,330.0) scale(0.0460,-0.0460)"><path d="M-60 -154H-23Q32 -154 67.0 -138.0Q102 -122 122.0 -95.5Q142 -69 150.0 -33.5Q158 2 158 41Q158 70 155.0 101.5Q152 133 147 162L126 275L196 289L209 213Q225 121 225 39Q225 -16 213.0 -66.5Q201 -117 172.5 -155.5Q144 -194 96.5 -217.0Q49 -240 -23 -240H-60Z" fill="#0b1f2a"/></g>
<g transform="translate(677.0,320.9) scale(0.0460,-0.0460)"><path d="M51 403Q58 419 62.0 433.5Q66 448 66 459Q66 482 42 482Q31 482 21 476L-3 525Q25 542 50 542Q77 542 92.0 526.5Q107 511 107 484Q107 470 103.5 455.0Q100 440 93 427L94 423L165 457V461Q145 473 133.5 492.0Q122 511 122 534Q122 573 146.5 598.5Q171 624 210 624Q245 624 269.0 598.0Q293 572 293 534Q293 495 271.5 466.5Q250 438 205 416L74 354ZM173 537Q173 514 208 495L222 487Q243 504 243 529Q243 546 232.0 557.5Q221 569 204 569Q190 569 181.5 560.0Q173 551 173 537Z" fill="#0b1f2a"/></g>
<g transform="translate(673.8,330.0) scale(0.0460,-0.0460)"><path d="M113 0Q77 0 53.5 21.5Q30 43 30 85V162H100V86H235Q269 86 291.0 88.0Q313 90 326.0 94.5Q339 99 344.0 107.0Q349 115 349 128Q349 140 344.0 157.0Q339 174 326 209L230 473L301 499L403 219Q418 179 429.5 153.5Q441 128 453.0 113.0Q465 98 477.5 92.0Q490 86 506 86H531V20L511 0Q484 0 463.5 5.0Q443 10 427.0 20.5Q411 31 398.0 48.0Q385 65 373 90H368Q362 41 330.0 20.5Q298 0 235 0Z" fill="#0b1f2a"/></g>
<g transform="translate(703.5,326.3) scale(0.0460,-0.0460)"><path d="M68 359Q41 359 25.5 378.0Q10 397 10 432V500H60V450Q60 423 83 423Q112 423 112 469V527H162V493Q162 470 168.0 462.5Q174 455 186 455Q214 455 214 489Q214 511 202 550L251 565Q264 525 264 492Q264 444 243.5 417.5Q223 391 185 391Q166 391 152.0 403.5Q138 416 132 439H129Q127 401 111.0 380.0Q95 359 68 359ZM248 644 29 543 6 592 225 693Z" fill="#0b1f2a"/></g>
<g transform="translate(698.2,330.0) scale(0.0460,-0.0460)"><path d="M-20 66 0 86Q33 86 50.5 89.0Q68 92 79 101Q76 112 75.0 123.0Q74 134 74 147Q74 201 109.5 245.5Q145 290 217 337L266 369H344L415 176Q425 149 433.5 131.5Q442 114 452.5 104.0Q463 94 475.5 90.0Q488 86 505 86H524V20L504 0Q457 0 429.0 13.5Q401 27 379 67L373 65V0H254Q125 0 88 75H84Q71 37 48.0 18.5Q25 0 -20 0ZM140 156Q140 120 169.0 103.0Q198 86 260 86H369Q358 109 345 145L289 296L251 273Q206 246 173.0 217.0Q140 188 140 156Z" fill="#0b1f2a"/></g>
<g transform="translate(728.0,326.3) scale(0.0460,-0.0460)"><path d="M242 455 23 354 0 403 219 504Z" fill="#0b1f2a"/></g>
<g transform="translate(722.3,330.0) scale(0.0460,-0.0460)"><path d="M-20 66 0 86H34Q78 86 115.5 89.0Q153 92 192.0 100.5Q231 109 274.5 125.0Q318 141 373 167L465 211V215L317 248L110 299V213H40V290Q40 332 63.5 353.5Q87 375 123 375Q134 375 149.5 372.5Q165 370 198 362L442 299Q497 285 534.0 279.5Q571 274 598 274H614V188H538V176Q538 126 560.0 106.0Q582 86 628 86H663V20L643 0Q599 0 568.0 8.0Q537 16 517.5 34.5Q498 53 488.5 82.0Q479 111 478 153L400 106Q338 69 290.0 47.5Q242 26 200.0 15.5Q158 5 118.5 2.5Q79 0 34 0H-20Z" fill="#0b1f2a"/></g>
<g transform="translate(759.8,326.0) scale(0.0460,-0.0460)"><path d="M0 403 114 457V461Q94 473 82.5 492.0Q71 511 71 534Q71 573 95.5 598.5Q120 624 159 624Q194 624 218.0 598.0Q242 572 242 534Q242 495 220.5 466.5Q199 438 154 416L23 354ZM122 537Q122 514 157 495L171 487Q192 504 192 529Q192 546 181.0 557.5Q170 569 153 569Q139 569 130.5 560.0Q122 551 122 537Z" fill="#0b1f2a"/></g>
<g transform="translate(752.8,330.0) scale(0.0460,-0.0460)"><path d="M111 58Q88 27 57.5 13.5Q27 0 -20 0V66L0 86Q19 86 32.5 91.0Q46 96 56.5 106.5Q67 117 75.5 134.5Q84 152 93 176L121 250Q144 310 182.0 342.5Q220 375 283 375Q357 375 397.5 308.0Q438 241 438 122V75L379 -12ZM151 137 368 79V122Q368 200 342.5 244.5Q317 289 271 289Q233 289 212.5 266.0Q192 243 178 208Z" fill="#0b1f2a"/></g>
<g transform="translate(791.9,321.3) scale(0.0460,-0.0460)"><path d="M0 403 114 457V461Q94 473 82.5 492.0Q71 511 71 534Q71 573 95.5 598.5Q120 624 159 624Q194 624 218.0 598.0Q242 572 242 534Q242 495 220.5 466.5Q199 438 154 416L23 354ZM122 537Q122 514 157 495L171 487Q192 504 192 529Q192 546 181.0 557.5Q170 569 153 569Q139 569 130.5 560.0Q122 551 122 537Z" fill="#0b1f2a"/></g>
<g transform="translate(785.9,330.0) scale(0.0460,-0.0460)"><path d="M456 0Q410 0 378.5 7.5Q347 15 327.5 32.5Q308 50 299.0 77.5Q290 105 290 146V163H285Q271 118 237.5 95.5Q204 73 157 73Q90 73 52.5 109.0Q15 145 15 211Q15 239 24.0 263.5Q33 288 53.5 311.5Q74 335 106.0 358.5Q138 382 184 408L285 466V516H355V156Q355 115 376.0 100.5Q397 86 441 86H476V20ZM172 159Q233 159 259.0 176.5Q285 194 285 239V385L184 331Q131 302 108.0 277.5Q85 253 85 221Q85 189 104.5 174.0Q124 159 172 159Z" fill="#0b1f2a"/></g>
<g transform="translate(807.8,330.0) scale(0.0460,-0.0460)"><path d="M-20 66 0 86H35Q120 86 120 171V740H194V171Q194 86 279 86H314V20L294 0Q152 0 128 98H123Q112 43 80.0 21.5Q48 0 -20 0Z" fill="#0b1f2a"/></g>
<g transform="translate(822.2,330.0) scale(0.0460,-0.0460)"><path d="M-20 66 0 86H29Q77 86 98.5 108.0Q120 130 120 178V740H194V178Q194 86 154.5 43.0Q115 0 29 0H-20Z" fill="#0b1f2a"/></g>
<g transform="translate(834.6,330.0) scale(0.0460,-0.0460)"><path d="M75 740H149V0H75Z" fill="#0b1f2a"/></g>
<g transform="translate(855.8,330.0) scale(0.0460,-0.0460)"><path d="M67 82 255 265 -2 557 52 604 307 315 312 320Q332 339 345.0 356.0Q358 373 365.5 391.5Q373 410 376.0 431.5Q379 453 379 482V740H453V482Q453 446 449.0 419.0Q445 392 435.0 369.0Q425 346 407.5 323.5Q390 301 363 274L353 264L414 195Q447 157 460.0 133.0Q473 109 473 86Q473 53 449.5 26.5Q426 0 378 0H67ZM300 214 170 90 171 86H414Z" fill="#0b1f2a"/></g>
<g transform="translate(879.6,330.0) scale(0.0460,-0.0460)"><path d="M75 740H149V0H75ZM11 -199H47L48 -195Q40 -185 35.0 -171.5Q30 -158 30 -144Q30 -105 56.0 -79.0Q82 -53 122 -53Q145 -53 169.0 -64.5Q193 -76 205 -95L168 -140Q148 -117 122 -117Q104 -117 92.0 -126.5Q80 -136 80 -150Q80 -171 99.0 -183.0Q118 -195 152 -195H216V-259H11Z" fill="#0b1f2a"/></g>
<g transform="translate(906.7,321.3) scale(0.0460,-0.0460)"><path d="M242 455 23 354 0 403 219 504Z" fill="#0b1f2a"/></g>
<g transform="translate(900.7,330.0) scale(0.0460,-0.0460)"><path d="M456 0Q410 0 378.5 7.5Q347 15 327.5 32.5Q308 50 299.0 77.5Q290 105 290 146V163H285Q271 118 237.5 95.5Q204 73 157 73Q90 73 52.5 109.0Q15 145 15 211Q15 239 24.0 263.5Q33 288 53.5 311.5Q74 335 106.0 358.5Q138 382 184 408L285 466V516H355V156Q355 115 376.0 100.5Q397 86 441 86H476V20ZM172 159Q233 159 259.0 176.5Q285 194 285 239V385L184 331Q131 302 108.0 277.5Q85 253 85 221Q85 189 104.5 174.0Q124 159 172 159Z" fill="#0b1f2a"/></g>
<g transform="translate(922.6,330.0) scale(0.0460,-0.0460)"><path d="M-20 66 0 86H29Q77 86 98.5 108.0Q120 130 120 178V740H194V178Q194 86 154.5 43.0Q115 0 29 0H-20Z" fill="#0b1f2a"/></g>
<g transform="translate(935.0,330.0) scale(0.0460,-0.0460)"><path d="M75 740H149V0H75ZM11 -199H47L48 -195Q40 -185 35.0 -171.5Q30 -158 30 -144Q30 -105 56.0 -79.0Q82 -53 122 -53Q145 -53 169.0 -64.5Q193 -76 205 -95L168 -140Q148 -117 122 -117Q104 -117 92.0 -126.5Q80 -136 80 -150Q80 -171 99.0 -183.0Q118 -195 152 -195H216V-259H11Z" fill="#0b1f2a"/></g>
<g transform="translate(956.2,330.0) scale(0.0460,-0.0460)"><path d="M67 82 255 265 -2 557 52 604 307 315 312 320Q332 339 345.0 356.0Q358 373 365.5 391.5Q373 410 376.0 431.5Q379 453 379 482V740H453V482Q453 446 449.0 419.0Q445 392 435.0 369.0Q425 346 407.5 323.5Q390 301 363 274L353 264L414 195Q447 157 460.0 133.0Q473 109 473 86Q473 53 449.5 26.5Q426 0 378 0H67ZM300 214 170 90 171 86H414Z" fill="#0b1f2a"/></g>
<g transform="translate(390.1,400.0) scale(0.0460,-0.0460)"><path d="M456 0Q410 0 378.5 7.5Q347 15 327.5 32.5Q308 50 299.0 77.5Q290 105 290 146V163H285Q271 118 237.5 95.5Q204 73 157 73Q90 73 52.5 109.0Q15 145 15 211Q15 239 24.0 263.5Q33 288 53.5 311.5Q74 335 106.0 358.5Q138 382 184 408L285 466V516H355V156Q355 115 376.0 100.5Q397 86 441 86H476V20ZM172 159Q233 159 259.0 176.5Q285 194 285 239V385L184 331Q131 302 108.0 277.5Q85 253 85 221Q85 189 104.5 174.0Q124 159 172 159ZM317 599Q297 599 285.0 610.5Q273 622 273 648Q273 674 285.0 685.5Q297 697 317 697H328Q348 697 360.0 685.5Q372 674 372 648Q372 622 360.0 610.5Q348 599 328 599ZM188 599Q168 599 156.0 610.5Q144 622 144 648Q144 674 156.0 685.5Q168 697 188 697H199Q219 697 231.0 685.5Q243 674 243 648Q243 622 231.0 610.5Q219 599 199 599Z" fill="#0b1f2a"/></g>
<g transform="translate(412.0,400.0) scale(0.0460,-0.0460)"><path d="M-20 66 0 86H35Q120 86 120 171V329H190V171Q190 86 275 86H310V20L290 0Q152 0 128 98H123Q112 43 80.0 21.5Q48 0 -20 0ZM214 449Q194 449 182.0 460.5Q170 472 170 498Q170 524 182.0 535.5Q194 547 214 547H225Q245 547 257.0 535.5Q269 524 269 498Q269 472 257.0 460.5Q245 449 225 449ZM85 449Q65 449 53.0 460.5Q41 472 41 498Q41 524 53.0 535.5Q65 547 85 547H96Q116 547 128.0 535.5Q140 524 140 498Q140 472 128.0 460.5Q116 449 96 449ZM149 570Q130 570 118.5 581.5Q107 593 107 617Q107 641 118.5 652.5Q130 664 149 664H161Q180 664 191.5 652.5Q203 641 203 617Q203 593 191.5 581.5Q180 570 161 570Z" fill="#0b1f2a"/></g>
<g transform="translate(426.3,400.0) scale(0.0460,-0.0460)"><path d="M-20 66 0 86H15Q81 86 110.5 102.5Q140 119 140 166Q140 184 137.5 212.0Q135 240 127 286L113 369L183 380L195 297Q202 248 205.0 217.0Q208 186 208 166Q208 82 158.5 41.0Q109 0 15 0H-20ZM197 -200Q177 -200 165.0 -188.5Q153 -177 153 -151Q153 -125 165.0 -113.5Q177 -102 197 -102H208Q228 -102 240.0 -113.5Q252 -125 252 -151Q252 -177 240.0 -188.5Q228 -200 208 -200ZM68 -200Q48 -200 36.0 -188.5Q24 -177 24 -151Q24 -125 36.0 -113.5Q48 -102 68 -102H79Q99 -102 111.0 -113.5Q123 -125 123 -151Q123 -177 111.0 -188.5Q99 -200 79 -200Z" fill="#0b1f2a"/></g>
<g transform="translate(437.9,400.0) scale(0.0460,-0.0460)"><path d="M113 0Q77 0 53.5 21.5Q30 43 30 85V162H100V86H235Q269 86 291.0 88.0Q313 90 326.0 94.5Q339 99 344.0 107.0Q349 115 349 128Q349 140 344.0 157.0Q339 174 326 209L230 473L301 499L403 219Q418 179 429.5 153.5Q441 128 453.0 113.0Q465 98 477.5 92.0Q490 86 506 86H531V20L511 0Q484 0 463.5 5.0Q443 10 427.0 20.5Q411 31 398.0 48.0Q385 65 373 90H368Q362 41 330.0 20.5Q298 0 235 0Z" fill="#0b1f2a"/></g>
<g transform="translate(462.3,400.0) scale(0.0460,-0.0460)"><path d="M-20 66 0 86H34Q78 86 115.5 89.0Q153 92 192.0 100.5Q231 109 274.5 125.0Q318 141 373 167L465 211V215L317 248L110 299V213H40V290Q40 332 63.5 353.5Q87 375 123 375Q134 375 149.5 372.5Q165 370 198 362L442 299Q497 285 534.0 279.5Q571 274 598 274H614V188H536L400 106Q338 69 290.0 47.5Q242 26 200.0 15.5Q158 5 118.5 2.5Q79 0 34 0H-20Z" fill="#0b1f2a"/></g>
<g transform="translate(502.3,400.0) scale(0.0460,-0.0460)"><path d="M456 0Q410 0 378.5 7.5Q347 15 327.5 32.5Q308 50 299.0 77.5Q290 105 290 146V163H285Q271 118 237.5 95.5Q204 73 157 73Q90 73 52.5 109.0Q15 145 15 211Q15 239 24.0 263.5Q33 288 53.5 311.5Q74 335 106.0 358.5Q138 382 184 408L285 466V516H355V156Q355 115 376.0 100.5Q397 86 441 86H476V20ZM172 159Q233 159 259.0 176.5Q285 194 285 239V385L184 331Q131 302 108.0 277.5Q85 253 85 221Q85 189 104.5 174.0Q124 159 172 159ZM317 599Q297 599 285.0 610.5Q273 622 273 648Q273 674 285.0 685.5Q297 697 317 697H328Q348 697 360.0 685.5Q372 674 372 648Q372 622 360.0 610.5Q348 599 328 599ZM188 599Q168 599 156.0 610.5Q144 622 144 648Q144 674 156.0 685.5Q168 697 188 697H199Q219 697 231.0 685.5Q243 674 243 648Q243 622 231.0 610.5Q219 599 199 599Z" fill="#0b1f2a"/></g>
<g transform="translate(524.2,400.0) scale(0.0460,-0.0460)"><path d="M-20 66 0 86H35Q120 86 120 171V329H190V171Q190 86 275 86H310V20L290 0Q152 0 128 98H123Q112 43 80.0 21.5Q48 0 -20 0ZM214 -200Q194 -200 182.0 -188.5Q170 -177 170 -151Q170 -125 182.0 -113.5Q194 -102 214 -102H225Q245 -102 257.0 -113.5Q269 -125 269 -151Q269 -177 257.0 -188.5Q245 -200 225 -200ZM85 -200Q65 -200 53.0 -188.5Q41 -177 41 -151Q41 -125 53.0 -113.5Q65 -102 85 -102H96Q116 -102 128.0 -113.5Q140 -125 140 -151Q140 -177 128.0 -188.5Q116 -200 96 -200Z" fill="#0b1f2a"/></g>
<g transform="translate(538.5,400.0) scale(0.0460,-0.0460)"><path d="M-20 66 0 86Q33 86 50.5 89.0Q68 92 79 101Q76 112 75.0 123.0Q74 134 74 147Q74 201 109.5 245.5Q145 290 217 337L266 369H344L415 176Q425 149 433.5 131.5Q442 114 452.5 104.0Q463 94 475.5 90.0Q488 86 505 86H524V20L504 0Q457 0 429.0 13.5Q401 27 379 67L373 65V0H254Q125 0 88 75H84Q71 37 48.0 18.5Q25 0 -20 0ZM140 156Q140 120 169.0 103.0Q198 86 260 86H369Q358 109 345 145L289 296L251 273Q206 246 173.0 217.0Q140 188 140 156Z" fill="#0b1f2a"/></g>
<g transform="translate(562.6,400.0) scale(0.0460,-0.0460)"><path d="M-20 66 0 86H189Q230 86 258.0 93.0Q286 100 303.5 116.0Q321 132 328.5 157.5Q336 183 336 220V252H331Q317 219 284.5 200.0Q252 181 208 181Q128 181 84.0 222.0Q40 263 40 338Q40 382 53.5 421.0Q67 460 91.0 489.0Q115 518 148.5 535.0Q182 552 222 552Q308 552 357.0 478.0Q406 404 406 270Q406 195 395.0 143.0Q384 91 358.5 59.5Q333 28 291.5 14.0Q250 0 189 0H-20ZM228 269Q271 269 296.5 276.5Q322 284 336 300Q334 376 302.0 421.0Q270 466 216 466Q165 466 137.5 433.5Q110 401 110 348Q110 306 133.5 287.5Q157 269 208 269ZM278 672Q258 672 246.0 683.5Q234 695 234 721Q234 747 246.0 758.5Q258 770 278 770H289Q309 770 321.0 758.5Q333 747 333 721Q333 695 321.0 683.5Q309 672 289 672ZM149 672Q129 672 117.0 683.5Q105 695 105 721Q105 747 117.0 758.5Q129 770 149 770H160Q180 770 192.0 758.5Q204 747 204 721Q204 695 192.0 683.5Q180 672 160 672Z" fill="#0b1f2a"/></g>
<g transform="translate(583.3,400.0) scale(0.0460,-0.0460)"><path d="M-60 -154H-23Q32 -154 67.0 -138.0Q102 -122 122.0 -95.5Q142 -69 150.0 -33.5Q158 2 158 41Q158 70 155.0 101.5Q152 133 147 162L126 275L196 289L209 213Q225 121 225 39Q225 -16 213.0 -66.5Q201 -117 172.5 -155.5Q144 -194 96.5 -217.0Q49 -240 -23 -240H-60Z" fill="#0b1f2a"/></g>
<g transform="translate(606.4,400.0) scale(0.0460,-0.0460)"><path d="M456 0Q410 0 378.5 7.5Q347 15 327.5 32.5Q308 50 299.0 77.5Q290 105 290 146V163H285Q271 118 237.5 95.5Q204 73 157 73Q90 73 52.5 109.0Q15 145 15 211Q15 239 24.0 263.5Q33 288 53.5 311.5Q74 335 106.0 358.5Q138 382 184 408L285 466V516H355V156Q355 115 376.0 100.5Q397 86 441 86H476V20ZM172 159Q233 159 259.0 176.5Q285 194 285 239V385L184 331Q131 302 108.0 277.5Q85 253 85 221Q85 189 104.5 174.0Q124 159 172 159ZM317 599Q297 599 285.0 610.5Q273 622 273 648Q273 674 285.0 685.5Q297 697 317 697H328Q348 697 360.0 685.5Q372 674 372 648Q372 622 360.0 610.5Q348 599 328 599ZM188 599Q168 599 156.0 610.5Q144 622 144 648Q144 674 156.0 685.5Q168 697 188 697H199Q219 697 231.0 685.5Q243 674 243 648Q243 622 231.0 610.5Q219 599 199 599Z" fill="#0b1f2a"/></g>
<g transform="translate(628.3,400.0) scale(0.0460,-0.0460)"><path d="M-20 66 0 86H15Q81 86 110.5 102.5Q140 119 140 166Q140 184 137.5 212.0Q135 240 127 286L113 369L183 380L195 297Q202 248 205.0 217.0Q208 186 208 166Q208 82 158.5 41.0Q109 0 15 0H-20ZM197 -200Q177 -200 165.0 -188.5Q153 -177 153 -151Q153 -125 165.0 -113.5Q177 -102 197 -102H208Q228 -102 240.0 -113.5Q252 -125 252 -151Q252 -177 240.0 -188.5Q228 -200 208 -200ZM68 -200Q48 -200 36.0 -188.5Q24 -177 24 -151Q24 -125 36.0 -113.5Q48 -102 68 -102H79Q99 -102 111.0 -113.5Q123 -125 123 -151Q123 -177 111.0 -188.5Q99 -200 79 -200Z" fill="#0b1f2a"/></g>
<g transform="translate(640.4,400.0) scale(0.0460,-0.0460)"><path d="M34 -154H87Q196 -154 255.5 -113.5Q315 -73 329 0H212Q132 0 88.0 42.0Q44 84 44 160Q44 205 57.5 245.0Q71 285 95.0 314.5Q119 344 152.5 361.5Q186 379 226 379Q309 379 356.5 305.0Q404 231 404 97V86H450V20L430 0H395Q373 -115 296.5 -177.5Q220 -240 87 -240H34ZM114 170Q114 126 137.5 106.0Q161 86 212 86H334V117Q334 198 303.5 245.5Q273 293 220 293Q169 293 141.5 259.0Q114 225 114 170Z" fill="#0b1f2a"/></g>
<g transform="translate(661.1,400.0) scale(0.0460,-0.0460)"><path d="M-20 66 0 86H145L147 90Q98 128 71.5 176.0Q45 224 45 275Q45 312 57.5 345.5Q70 379 91.0 404.5Q112 430 140.5 447.0Q169 464 202 468L238 528L389 436Q441 404 477.5 371.0Q514 338 537.0 299.0Q560 260 570.5 213.5Q581 167 581 107V87L522 0H408Q357 0 310.0 11.5Q263 23 221 46Q179 23 132.0 11.5Q85 0 34 0H-20ZM221 116Q269 144 298.0 186.5Q327 229 327 275Q327 329 299.5 361.0Q272 393 226 393H216Q170 393 142.5 361.0Q115 329 115 275Q115 229 144.0 186.5Q173 144 221 116ZM385 342Q397 310 397 275Q397 224 370.5 176.0Q344 128 295 90L297 86H511V97Q511 142 504.0 178.0Q497 214 482.0 244.0Q467 274 443.5 298.5Q420 323 388 345Z" fill="#0b1f2a"/></g>
<g transform="translate(689.9,400.0) scale(0.0460,-0.0460)"><path d="M34 -154H103Q224 -154 282.0 -101.0Q340 -48 340 47V69H335Q321 36 288.5 17.0Q256 -2 212 -2Q132 -2 88.0 40.5Q44 83 44 160Q44 205 57.5 245.0Q71 285 95.0 314.5Q119 344 152.5 361.5Q186 379 226 379Q312 379 361.0 305.0Q410 231 410 97Q410 -62 333.5 -151.0Q257 -240 103 -240H34ZM232 86Q275 86 300.5 93.5Q326 101 340 117Q340 198 308.0 245.5Q276 293 220 293Q169 293 141.5 259.0Q114 225 114 170Q114 126 137.5 106.0Q161 86 212 86Z" fill="#0b1f2a"/></g>
<g transform="translate(721.7,400.0) scale(0.0460,-0.0460)"><path d="M317 -240Q186 -240 113.0 -174.0Q40 -108 40 10Q40 56 52.5 107.5Q65 159 87 210L149 191Q130 152 118.0 109.5Q106 67 106 29Q106 -56 154.0 -103.0Q202 -150 287 -150H347Q453 -150 502.5 -107.5Q552 -65 552 26Q552 42 551.0 58.0Q550 74 547.5 93.5Q545 113 540.5 137.0Q536 161 530 191L513 274L583 288L598 205Q605 166 609.5 137.5Q614 109 616 86H714V20L694 0H619Q612 -124 539.0 -182.0Q466 -240 317 -240ZM331 312Q311 312 299.0 323.5Q287 335 287 361Q287 387 299.0 398.5Q311 410 331 410H342Q362 410 374.0 398.5Q386 387 386 361Q386 335 374.0 323.5Q362 312 342 312Z" fill="#0b1f2a"/></g>
<g transform="translate(754.5,400.0) scale(0.0460,-0.0460)"><path d="M-20 66 0 86H189Q230 86 258.0 93.0Q286 100 303.5 116.0Q321 132 328.5 157.5Q336 183 336 220V252H331Q317 219 284.5 200.0Q252 181 208 181Q128 181 84.0 222.0Q40 263 40 338Q40 382 53.5 421.0Q67 460 91.0 489.0Q115 518 148.5 535.0Q182 552 222 552Q308 552 357.0 478.0Q406 404 406 270Q406 195 395.0 143.0Q384 91 358.5 59.5Q333 28 291.5 14.0Q250 0 189 0H-20ZM228 269Q271 269 296.5 276.5Q322 284 336 300Q334 376 302.0 421.0Q270 466 216 466Q165 466 137.5 433.5Q110 401 110 348Q110 306 133.5 287.5Q157 269 208 269ZM216 672Q196 672 184.0 683.5Q172 695 172 721Q172 747 184.0 758.5Q196 770 216 770H227Q247 770 259.0 758.5Q271 747 271 721Q271 695 259.0 683.5Q247 672 227 672Z" fill="#0b1f2a"/></g>
<g transform="translate(786.1,400.0) scale(0.0460,-0.0460)"><path d="M347 -240Q202 -240 121.0 -174.0Q40 -108 40 10Q40 56 52.5 107.5Q65 159 87 210L149 191Q130 152 118.0 109.5Q106 67 106 29Q106 -56 161.5 -103.0Q217 -150 317 -150H377Q437 -150 484.0 -137.5Q531 -125 563.5 -104.5Q596 -84 613.0 -59.0Q630 -34 630 -8V-6L414 42V124H455Q514 124 542.0 141.5Q570 159 570 208Q570 226 567.5 254.0Q565 282 557 328L543 411L613 422L625 339Q632 290 635.0 259.0Q638 228 638 208Q638 127 579 89V85L635 70Q696 54 696 -8Q696 -55 672.5 -97.0Q649 -139 604.0 -171.0Q559 -203 494.0 -221.5Q429 -240 347 -240ZM406 -440Q386 -440 374.0 -428.5Q362 -417 362 -391Q362 -365 374.0 -353.5Q386 -342 406 -342H417Q437 -342 449.0 -353.5Q461 -365 461 -391Q461 -417 449.0 -428.5Q437 -440 417 -440ZM277 -440Q257 -440 245.0 -428.5Q233 -417 233 -391Q233 -365 245.0 -353.5Q257 -342 277 -342H288Q308 -342 320.0 -353.5Q332 -365 332 -391Q332 -417 320.0 -428.5Q308 -440 288 -440ZM631 -360Q611 -360 599.0 -348.5Q587 -337 587 -311Q587 -285 599.0 -273.5Q611 -262 631 -262H642Q662 -262 674.0 -273.5Q686 -285 686 -311Q686 -337 674.0 -348.5Q662 -360 642 -360Z" fill="#0b1f2a"/></g>
<g transform="translate(820.4,400.0) scale(0.0460,-0.0460)"><path d="M-60 -154H-23Q32 -154 67.0 -138.0Q102 -122 122.0 -95.5Q142 -69 150.0 -33.5Q158 2 158 41Q158 70 155.0 101.5Q152 133 147 162L126 275L196 289L209 213Q215 178 218.5 147.0Q222 116 224 86H319V20L299 0H223Q219 -49 204.5 -92.5Q190 -136 161.5 -169.0Q133 -202 87.5 -221.0Q42 -240 -23 -240H-60Z" fill="#0b1f2a"/></g>
<g transform="translate(835.1,400.0) scale(0.0460,-0.0460)"><path d="M-20 66 0 86H185L186 90L45 264V350Q89 373 140.5 385.5Q192 398 241 398Q332 398 382.5 361.0Q433 324 433 258Q433 232 426.5 212.5Q420 193 405.0 174.0Q390 155 366.0 135.0Q342 115 308 89L309 86H478V20L458 0H393Q353 0 315.5 11.5Q278 23 246 46Q214 23 176.5 11.5Q139 0 99 0H-20ZM112 288 253 120 264 129Q288 149 306.5 164.0Q325 179 338.0 192.5Q351 206 358.0 218.5Q365 231 365 246Q365 278 332.0 295.0Q299 312 239 312Q210 312 178.5 307.5Q147 303 112 292Z" fill="#0b1f2a"/></g>
<g transform="translate(857.1,400.0) scale(0.0460,-0.0460)"><path d="M-20 66 0 86H29Q77 86 98.5 108.0Q120 130 120 178V740H194V178Q194 86 154.5 43.0Q115 0 29 0H-20Z" fill="#0b1f2a"/></g>
<g transform="translate(869.5,400.0) scale(0.0460,-0.0460)"><path d="M75 740H149V0H75Z" fill="#0b1f2a"/></g>
<g transform="translate(890.6,400.0) scale(0.0460,-0.0460)"><path d="M767 0Q729 0 703.5 6.5Q678 13 657 32Q605 0 511 0H50V86H150L187 149V740H261V374L249 257L254 255Q287 299 320.0 328.5Q353 358 387.5 376.0Q422 394 457.5 402.0Q493 410 531 410Q628 410 682.0 356.5Q736 303 736 209Q736 139 713 93Q734 86 767 86H787V20ZM511 86Q586 86 626.0 111.0Q666 136 666 199Q666 261 634.5 292.5Q603 324 546 324H516Q476 324 443.5 316.5Q411 309 381.5 290.5Q352 272 323.5 239.5Q295 207 263 158L220 91L223 86Z" fill="#0b1f2a"/></g>
<g transform="translate(926.8,400.0) scale(0.0460,-0.0460)"><path d="M-20 66 0 86H34Q78 86 115.5 89.0Q153 92 192.0 100.5Q231 109 274.5 125.0Q318 141 373 167L465 211V215L317 248L110 299V213H40V290Q40 332 63.5 353.5Q87 375 123 375Q134 375 149.5 372.5Q165 370 198 362L442 299Q497 285 534.0 279.5Q571 274 598 274H614V188H538V176Q538 126 560.0 106.0Q582 86 628 86H663V20L643 0Q599 0 568.0 8.0Q537 16 517.5 34.5Q498 53 488.5 82.0Q479 111 478 153L400 106Q338 69 290.0 47.5Q242 26 200.0 15.5Q158 5 118.5 2.5Q79 0 34 0H-20ZM248 489Q228 489 216.0 500.5Q204 512 204 538Q204 564 216.0 575.5Q228 587 248 587H259Q279 587 291.0 575.5Q303 564 303 538Q303 512 291.0 500.5Q279 489 259 489Z" fill="#0b1f2a"/></g>
<g transform="translate(957.3,400.0) scale(0.0460,-0.0460)"><path d="M-20 66 0 86H29Q77 86 98.5 108.0Q120 130 120 178V740H194V178Q194 86 154.5 43.0Q115 0 29 0H-20Z" fill="#0b1f2a"/></g>
<g transform="translate(969.7,400.0) scale(0.0460,-0.0460)"><path d="M75 740H149V0H75Z" fill="#0b1f2a"/></g>
<g transform="translate(20.0,470.0) scale(0.0300,-0.0300)"><path d="M328 624V0H244V624H22V698H550V624Z" fill="#0b1f2a"/></g>
<g transform="translate(37.2,470.0) scale(0.0300,-0.0300)"><path d="M85 740H165V432H169Q188 476 222.5 502.0Q257 528 315 528Q395 528 441.5 476.5Q488 425 488 331V0H408V317Q408 456 291 456Q267 456 244.5 450.0Q222 444 204.0 432.0Q186 420 175.5 401.5Q165 383 165 358V0H85Z" fill="#0b1f2a"/></g>
<g transform="translate(54.2,470.0) scale(0.0300,-0.0300)"><path d="M279 -12Q226 -12 183.5 7.0Q141 26 110.5 61.5Q80 97 63.5 146.5Q47 196 47 258Q47 319 63.5 369.0Q80 419 110.5 454.5Q141 490 183.5 509.0Q226 528 279 528Q331 528 372.0 509.0Q413 490 442.0 456.5Q471 423 486.5 377.0Q502 331 502 276V238H131V214Q131 181 141.5 152.5Q152 124 171.5 103.0Q191 82 219.5 70.0Q248 58 284 58Q333 58 369.5 81.0Q406 104 426 147L483 106Q458 53 405.0 20.5Q352 -12 279 -12ZM279 461Q246 461 219.0 449.5Q192 438 172.5 417.0Q153 396 142.0 367.5Q131 339 131 305V298H416V309Q416 378 378.5 419.5Q341 461 279 461Z" fill="#0b1f2a"/></g>
<g transform="translate(77.7,470.0) scale(0.0300,-0.0300)"><path d="M415 84H411Q364 -12 260 -12Q212 -12 173.0 7.0Q134 26 106.5 61.0Q79 96 64.5 146.0Q50 196 50 258Q50 320 64.5 370.0Q79 420 106.5 455.0Q134 490 173.0 509.0Q212 528 260 528Q314 528 352.5 504.5Q391 481 411 432H415V516H495V-200H415ZM282 60Q309 60 333.5 67.0Q358 74 376.0 87.5Q394 101 404.5 120.5Q415 140 415 165V357Q415 378 404.5 396.5Q394 415 376.0 428.0Q358 441 333.5 448.5Q309 456 282 456Q214 456 175.0 413.5Q136 371 136 302V214Q136 145 175.0 102.5Q214 60 282 60Z" fill="#0b1f2a"/></g>
<g transform="translate(95.1,470.0) scale(0.0300,-0.0300)"><path d="M403 84H399Q391 66 379.5 48.5Q368 31 351.0 17.5Q334 4 310.0 -4.0Q286 -12 254 -12Q174 -12 127.0 39.5Q80 91 80 185V516H160V199Q160 60 278 60Q302 60 324.5 66.0Q347 72 364.5 84.0Q382 96 392.5 114.5Q403 133 403 159V516H483V0H403Z" fill="#0b1f2a"/></g>
<g transform="translate(112.2,470.0) scale(0.0300,-0.0300)"><path d="M125 637Q99 637 87.5 649.5Q76 662 76 682V695Q76 715 87.5 727.5Q99 740 125 740Q151 740 162.5 727.5Q174 715 174 695V682Q174 662 162.5 649.5Q151 637 125 637ZM85 516H165V0H85Z" fill="#0b1f2a"/></g>
<g transform="translate(119.7,470.0) scale(0.0300,-0.0300)"><path d="M277 -12Q223 -12 180.0 7.0Q137 26 107.5 61.0Q78 96 62.5 146.0Q47 196 47 258Q47 320 62.5 370.0Q78 420 107.5 455.0Q137 490 180.0 509.0Q223 528 277 528Q354 528 400.5 494.5Q447 461 470 407L403 373Q389 413 357.0 435.0Q325 457 277 457Q241 457 214.0 445.5Q187 434 169.0 413.5Q151 393 142.0 364.5Q133 336 133 302V214Q133 146 169.5 102.5Q206 59 277 59Q374 59 417 149L475 110Q450 54 400.5 21.0Q351 -12 277 -12Z" fill="#0b1f2a"/></g>
<g transform="translate(134.8,470.0) scale(0.0300,-0.0300)"><path d="M85 740H165V271H169L248 359L394 516H491L300 312L510 0H413L242 263L165 184V0H85Z" fill="#0b1f2a"/></g>
<g transform="translate(157.7,470.0) scale(0.0300,-0.0300)"><path d="M85 740H165V432H169Q189 481 227.5 504.5Q266 528 320 528Q368 528 407.0 509.0Q446 490 473.5 455.0Q501 420 515.5 370.0Q530 320 530 258Q530 196 515.5 146.0Q501 96 473.5 61.0Q446 26 407.0 7.0Q368 -12 320 -12Q215 -12 169 84H165V0H85ZM298 60Q366 60 405.0 102.5Q444 145 444 214V302Q444 371 405.0 413.5Q366 456 298 456Q271 456 246.5 448.5Q222 441 204.0 428.0Q186 415 175.5 396.5Q165 378 165 357V165Q165 140 175.5 120.5Q186 101 204.0 87.5Q222 74 246.5 67.0Q271 60 298 60Z" fill="#0b1f2a"/></g>
<g transform="translate(175.1,470.0) scale(0.0300,-0.0300)"><path d="M85 0V516H165V421H170Q184 458 220.0 487.0Q256 516 319 516H350V436H303Q238 436 201.5 411.5Q165 387 165 350V0Z" fill="#0b1f2a"/></g>
<g transform="translate(185.9,470.0) scale(0.0300,-0.0300)"><path d="M280 -12Q228 -12 185.0 7.0Q142 26 111.5 61.5Q81 97 64.0 146.5Q47 196 47 258Q47 319 64.0 369.0Q81 419 111.5 454.5Q142 490 185.0 509.0Q228 528 280 528Q332 528 374.5 509.0Q417 490 448.0 454.5Q479 419 496.0 369.0Q513 319 513 258Q513 196 496.0 146.5Q479 97 448.0 61.5Q417 26 374.5 7.0Q332 -12 280 -12ZM280 59Q345 59 386.0 99.0Q427 139 427 221V295Q427 377 386.0 417.0Q345 457 280 457Q215 457 174.0 417.0Q133 377 133 295V221Q133 139 174.0 99.0Q215 59 280 59Z" fill="#0b1f2a"/></g>
<g transform="translate(202.6,470.0) scale(0.0300,-0.0300)"><path d="M31 516H109L164 293L219 67H221L284 293L349 516H420L487 293L551 67H553L606 293L662 516H737L600 0H501L429 248L384 405H382L338 248L266 0H169Z" fill="#0b1f2a"/></g>
<g transform="translate(225.6,470.0) scale(0.0300,-0.0300)"><path d="M85 0V516H165V432H169Q188 476 222.5 502.0Q257 528 315 528Q395 528 441.5 476.5Q488 425 488 331V0H408V317Q408 456 291 456Q267 456 244.5 450.0Q222 444 204.0 432.0Q186 420 175.5 401.5Q165 383 165 358V0Z" fill="#0b1f2a"/></g>
<g transform="translate(249.7,470.0) scale(0.0300,-0.0300)"><path d="M113 446H29V516H113V620Q113 674 141.0 707.0Q169 740 226 740H304V670H193V516H304V446H193V0H113Z" fill="#0b1f2a"/></g>
<g transform="translate(259.3,470.0) scale(0.0300,-0.0300)"><path d="M280 -12Q228 -12 185.0 7.0Q142 26 111.5 61.5Q81 97 64.0 146.5Q47 196 47 258Q47 319 64.0 369.0Q81 419 111.5 454.5Q142 490 185.0 509.0Q228 528 280 528Q332 528 374.5 509.0Q417 490 448.0 454.5Q479 419 496.0 369.0Q513 319 513 258Q513 196 496.0 146.5Q479 97 448.0 61.5Q417 26 374.5 7.0Q332 -12 280 -12ZM280 59Q345 59 386.0 99.0Q427 139 427 221V295Q427 377 386.0 417.0Q345 457 280 457Q215 457 174.0 417.0Q133 377 133 295V221Q133 139 174.0 99.0Q215 59 280 59Z" fill="#0b1f2a"/></g>
<g transform="translate(275.8,470.0) scale(0.0300,-0.0300)"><path d="M21 0 212 260 29 516H123L254 324H257L393 516H482L300 266L486 0H392L258 202H255L110 0Z" fill="#0b1f2a"/></g>
<g transform="translate(298.1,470.0) scale(0.0300,-0.0300)"><path d="M36 266V342H744V266Z" fill="#0b1f2a"/></g>
<g transform="translate(328.5,470.0) scale(0.0300,-0.0300)"><path d="M339 -12Q206 -12 132.0 78.5Q58 169 58 345Q58 521 132.0 615.5Q206 710 339 710Q427 710 486.5 670.0Q546 630 579 557L511 516Q490 570 447.0 602.5Q404 635 339 635Q294 635 258.5 618.0Q223 601 198.5 569.5Q174 538 161.0 494.5Q148 451 148 397V293Q148 185 198.0 124.0Q248 63 339 63Q406 63 451.0 97.5Q496 132 517 189L584 147Q551 73 489.0 30.5Q427 -12 339 -12Z" fill="#0b1f2a"/></g>
<g transform="translate(347.2,470.0) scale(0.0300,-0.0300)"><path d="M460 0Q415 0 395.5 24.0Q376 48 371 84H366Q349 36 310.0 12.0Q271 -12 217 -12Q135 -12 89.5 30.0Q44 72 44 144Q44 217 97.5 256.0Q151 295 264 295H366V346Q366 401 336.0 430.0Q306 459 244 459Q197 459 165.5 438.0Q134 417 113 382L65 427Q86 469 132.0 498.5Q178 528 248 528Q342 528 394.0 482.0Q446 436 446 354V70H505V0ZM230 56Q260 56 285.0 63.0Q310 70 328.0 83.0Q346 96 356.0 113.0Q366 130 366 150V235H260Q191 235 159.5 215.0Q128 195 128 157V136Q128 98 155.5 77.0Q183 56 230 56Z" fill="#0b1f2a"/></g>
<g transform="translate(363.2,470.0) scale(0.0300,-0.0300)"><path d="M113 446H29V516H113V620Q113 674 141.0 707.0Q169 740 226 740H304V670H193V516H304V446H193V0H113Z" fill="#0b1f2a"/></g>
<g transform="translate(372.8,470.0) scale(0.0300,-0.0300)"><path d="M279 -12Q226 -12 183.5 7.0Q141 26 110.5 61.5Q80 97 63.5 146.5Q47 196 47 258Q47 319 63.5 369.0Q80 419 110.5 454.5Q141 490 183.5 509.0Q226 528 279 528Q331 528 372.0 509.0Q413 490 442.0 456.5Q471 423 486.5 377.0Q502 331 502 276V238H131V214Q131 181 141.5 152.5Q152 124 171.5 103.0Q191 82 219.5 70.0Q248 58 284 58Q333 58 369.5 81.0Q406 104 426 147L483 106Q458 53 405.0 20.5Q352 -12 279 -12ZM279 461Q246 461 219.0 449.5Q192 438 172.5 417.0Q153 396 142.0 367.5Q131 339 131 305V298H416V309Q416 378 378.5 419.5Q341 461 279 461ZM287 585 235 609 320 779 393 744Z" fill="#0b1f2a"/></g>
<g transform="translate(396.3,470.0) scale(0.0300,-0.0300)"><path d="M85 0V516H165V421H170Q184 458 220.0 487.0Q256 516 319 516H350V436H303Q238 436 201.5 411.5Q165 387 165 350V0Z" fill="#0b1f2a"/></g>
<g transform="translate(407.2,470.0) scale(0.0300,-0.0300)"><path d="M279 -12Q226 -12 183.5 7.0Q141 26 110.5 61.5Q80 97 63.5 146.5Q47 196 47 258Q47 319 63.5 369.0Q80 419 110.5 454.5Q141 490 183.5 509.0Q226 528 279 528Q331 528 372.0 509.0Q413 490 442.0 456.5Q471 423 486.5 377.0Q502 331 502 276V238H131V214Q131 181 141.5 152.5Q152 124 171.5 103.0Q191 82 219.5 70.0Q248 58 284 58Q333 58 369.5 81.0Q406 104 426 147L483 106Q458 53 405.0 20.5Q352 -12 279 -12ZM279 461Q246 461 219.0 449.5Q192 438 172.5 417.0Q153 396 142.0 367.5Q131 339 131 305V298H416V309Q416 378 378.5 419.5Q341 461 279 461ZM287 585 235 609 320 779 393 744Z" fill="#0b1f2a"/></g>
<g transform="translate(423.7,470.0) scale(0.0300,-0.0300)"><path d="M240 -12Q168 -12 119.5 15.5Q71 43 36 89L93 135Q123 97 160.0 76.5Q197 56 246 56Q297 56 325.5 78.0Q354 100 354 140Q354 170 334.5 191.5Q315 213 264 221L223 227Q187 232 157.0 242.5Q127 253 104.5 270.5Q82 288 69.5 314.0Q57 340 57 376Q57 414 71.0 442.5Q85 471 109.5 490.0Q134 509 168.0 518.5Q202 528 241 528Q304 528 346.5 506.0Q389 484 421 445L368 397Q351 421 318.0 440.5Q285 460 235 460Q185 460 159.5 438.5Q134 417 134 380Q134 342 159.5 325.0Q185 308 233 300L273 294Q359 281 395.0 244.5Q431 208 431 149Q431 74 380.0 31.0Q329 -12 240 -12Z" fill="#0b1f2a"/></g>
<g transform="translate(438.3,470.0) scale(0.0300,-0.0300)"><path d="M403 84H399Q391 66 379.5 48.5Q368 31 351.0 17.5Q334 4 310.0 -4.0Q286 -12 254 -12Q174 -12 127.0 39.5Q80 91 80 185V516H160V199Q160 60 278 60Q302 60 324.5 66.0Q347 72 364.5 84.0Q382 96 392.5 114.5Q403 133 403 159V516H483V0H403Z" fill="#0b1f2a"/></g>
<g transform="translate(455.3,470.0) scale(0.0300,-0.0300)"><path d="M85 0V516H165V432H169Q178 452 189.5 469.5Q201 487 217.5 500.0Q234 513 256.0 520.5Q278 528 308 528Q359 528 402.0 503.5Q445 479 466 423H468Q482 465 520.5 496.5Q559 528 625 528Q704 528 748.5 476.5Q793 425 793 331V0H713V317Q713 386 686.0 421.0Q659 456 600 456Q576 456 554.5 450.0Q533 444 516.0 432.0Q499 420 489.0 401.5Q479 383 479 358V0H399V317Q399 386 372.0 421.0Q345 456 288 456Q264 456 242.0 450.0Q220 444 203.0 432.0Q186 420 175.5 401.5Q165 383 165 358V0Z" fill="#0b1f2a"/></g>
<g transform="translate(481.5,470.0) scale(0.0300,-0.0300)"><path d="M279 -12Q226 -12 183.5 7.0Q141 26 110.5 61.5Q80 97 63.5 146.5Q47 196 47 258Q47 319 63.5 369.0Q80 419 110.5 454.5Q141 490 183.5 509.0Q226 528 279 528Q331 528 372.0 509.0Q413 490 442.0 456.5Q471 423 486.5 377.0Q502 331 502 276V238H131V214Q131 181 141.5 152.5Q152 124 171.5 103.0Q191 82 219.5 70.0Q248 58 284 58Q333 58 369.5 81.0Q406 104 426 147L483 106Q458 53 405.0 20.5Q352 -12 279 -12ZM279 461Q246 461 219.0 449.5Q192 438 172.5 417.0Q153 396 142.0 367.5Q131 339 131 305V298H416V309Q416 378 378.5 419.5Q341 461 279 461ZM287 585 235 609 320 779 393 744Z" fill="#0b1f2a"/></g>
<g transform="translate(505.1,470.0) scale(0.0300,-0.0300)"><path d="M85 0V516H165V432H169Q188 476 222.5 502.0Q257 528 315 528Q395 528 441.5 476.5Q488 425 488 331V0H408V317Q408 456 291 456Q267 456 244.5 450.0Q222 444 204.0 432.0Q186 420 175.5 401.5Q165 383 165 358V0Z" fill="#0b1f2a"/></g>
<g transform="translate(522.1,470.0) scale(0.0300,-0.0300)"><path d="M460 0Q415 0 395.5 24.0Q376 48 371 84H366Q349 36 310.0 12.0Q271 -12 217 -12Q135 -12 89.5 30.0Q44 72 44 144Q44 217 97.5 256.0Q151 295 264 295H366V346Q366 401 336.0 430.0Q306 459 244 459Q197 459 165.5 438.0Q134 417 113 382L65 427Q86 469 132.0 498.5Q178 528 248 528Q342 528 394.0 482.0Q446 436 446 354V70H505V0ZM230 56Q260 56 285.0 63.0Q310 70 328.0 83.0Q346 96 356.0 113.0Q366 130 366 150V235H260Q191 235 159.5 215.0Q128 195 128 157V136Q128 98 155.5 77.0Q183 56 230 56Z" fill="#0b1f2a"/></g>
<g transform="translate(538.1,470.0) scale(0.0300,-0.0300)"><path d="M85 0V516H165V0ZM33 618Q7 618 -4.5 630.5Q-16 643 -16 664V675Q-16 696 -4.5 708.5Q7 721 33 721Q59 721 70.5 708.5Q82 696 82 675V664Q82 643 70.5 630.5Q59 618 33 618ZM219 618Q193 618 181.5 630.5Q170 643 170 664V675Q170 696 181.5 708.5Q193 721 219 721Q245 721 256.5 708.5Q268 696 268 675V664Q268 643 256.5 630.5Q245 618 219 618Z" fill="#0b1f2a"/></g>
<g transform="translate(545.6,470.0) scale(0.0300,-0.0300)"><path d="M199 0 18 516H98L188 260L244 84H249L305 260L397 516H474L292 0Z" fill="#0b1f2a"/></g>
<g transform="translate(560.1,470.0) scale(0.0300,-0.0300)"><path d="M279 -12Q226 -12 183.5 7.0Q141 26 110.5 61.5Q80 97 63.5 146.5Q47 196 47 258Q47 319 63.5 369.0Q80 419 110.5 454.5Q141 490 183.5 509.0Q226 528 279 528Q331 528 372.0 509.0Q413 490 442.0 456.5Q471 423 486.5 377.0Q502 331 502 276V238H131V214Q131 181 141.5 152.5Q152 124 171.5 103.0Q191 82 219.5 70.0Q248 58 284 58Q333 58 369.5 81.0Q406 104 426 147L483 106Q458 53 405.0 20.5Q352 -12 279 -12ZM279 461Q246 461 219.0 449.5Q192 438 172.5 417.0Q153 396 142.0 367.5Q131 339 131 305V298H416V309Q416 378 378.5 419.5Q341 461 279 461Z" fill="#0b1f2a"/></g>
<g transform="translate(583.7,470.0) scale(0.0300,-0.0300)"><path d="M544 0H36V76L439 624H57V698H530V622L126 74H544Z" fill="#0b1f2a"/></g>
<g transform="translate(601.0,470.0) scale(0.0300,-0.0300)"><path d="M403 84H399Q391 66 379.5 48.5Q368 31 351.0 17.5Q334 4 310.0 -4.0Q286 -12 254 -12Q174 -12 127.0 39.5Q80 91 80 185V516H160V199Q160 60 278 60Q302 60 324.5 66.0Q347 72 364.5 84.0Q382 96 392.5 114.5Q403 133 403 159V516H483V0H403ZM190 618Q164 618 152.5 630.5Q141 643 141 664V675Q141 696 152.5 708.5Q164 721 190 721Q216 721 227.5 708.5Q239 696 239 675V664Q239 643 227.5 630.5Q216 618 190 618ZM376 618Q350 618 338.5 630.5Q327 643 327 664V675Q327 696 338.5 708.5Q350 721 376 721Q402 721 413.5 708.5Q425 696 425 675V664Q425 643 413.5 630.5Q402 618 376 618Z" fill="#0b1f2a"/></g>
<g transform="translate(618.0,470.0) scale(0.0300,-0.0300)"><path d="M85 0V516H165V421H170Q184 458 220.0 487.0Q256 516 319 516H350V436H303Q238 436 201.5 411.5Q165 387 165 350V0Z" fill="#0b1f2a"/></g>
<g transform="translate(629.0,470.0) scale(0.0300,-0.0300)"><path d="M125 637Q99 637 87.5 649.5Q76 662 76 682V695Q76 715 87.5 727.5Q99 740 125 740Q151 740 162.5 727.5Q174 715 174 695V682Q174 662 162.5 649.5Q151 637 125 637ZM85 516H165V0H85Z" fill="#0b1f2a"/></g>
<g transform="translate(636.5,470.0) scale(0.0300,-0.0300)"><path d="M277 -12Q223 -12 180.0 7.0Q137 26 107.5 61.0Q78 96 62.5 146.0Q47 196 47 258Q47 320 62.5 370.0Q78 420 107.5 455.0Q137 490 180.0 509.0Q223 528 277 528Q354 528 400.5 494.5Q447 461 470 407L403 373Q389 413 357.0 435.0Q325 457 277 457Q241 457 214.0 445.5Q187 434 169.0 413.5Q151 393 142.0 364.5Q133 336 133 302V214Q133 146 169.5 102.5Q206 59 277 59Q374 59 417 149L475 110Q450 54 400.5 21.0Q351 -12 277 -12Z" fill="#0b1f2a"/></g>
<g transform="translate(651.6,470.0) scale(0.0300,-0.0300)"><path d="M85 740H165V432H169Q188 476 222.5 502.0Q257 528 315 528Q395 528 441.5 476.5Q488 425 488 331V0H408V317Q408 456 291 456Q267 456 244.5 450.0Q222 444 204.0 432.0Q186 420 175.5 401.5Q165 383 165 358V0H85Z" fill="#0b1f2a"/></g>
<g transform="translate(675.7,470.0) scale(0.0300,-0.0300)"><path d="M289 -12Q204 -12 144.0 20.5Q84 53 42 110L104 162Q141 113 186.0 87.5Q231 62 292 62Q367 62 406.5 98.0Q446 134 446 194Q446 244 416.0 271.0Q386 298 317 314L260 327Q164 349 113.5 393.5Q63 438 63 519Q63 565 80.0 601.0Q97 637 127.5 661.0Q158 685 200.5 697.5Q243 710 294 710Q373 710 429.5 681.0Q486 652 525 596L462 550Q433 590 392.0 613.0Q351 636 290 636Q223 636 184.5 607.5Q146 579 146 522Q146 472 178.5 446.5Q211 421 277 406L334 393Q437 370 483.0 323.0Q529 276 529 198Q529 150 512.5 111.0Q496 72 465.0 45.0Q434 18 389.5 3.0Q345 -12 289 -12Z" fill="#0b1f2a"/></g>
<g transform="translate(693.1,470.0) scale(0.0300,-0.0300)"><path d="M279 -12Q226 -12 183.5 7.0Q141 26 110.5 61.5Q80 97 63.5 146.5Q47 196 47 258Q47 319 63.5 369.0Q80 419 110.5 454.5Q141 490 183.5 509.0Q226 528 279 528Q331 528 372.0 509.0Q413 490 442.0 456.5Q471 423 486.5 377.0Q502 331 502 276V238H131V214Q131 181 141.5 152.5Q152 124 171.5 103.0Q191 82 219.5 70.0Q248 58 284 58Q333 58 369.5 81.0Q406 104 426 147L483 106Q458 53 405.0 20.5Q352 -12 279 -12ZM279 461Q246 461 219.0 449.5Q192 438 172.5 417.0Q153 396 142.0 367.5Q131 339 131 305V298H416V309Q416 378 378.5 419.5Q341 461 279 461Z" fill="#0b1f2a"/></g>
<g transform="translate(709.6,470.0) scale(0.0300,-0.0300)"><path d="M85 0V516H165V432H169Q188 476 222.5 502.0Q257 528 315 528Q395 528 441.5 476.5Q488 425 488 331V0H408V317Q408 456 291 456Q267 456 244.5 450.0Q222 444 204.0 432.0Q186 420 175.5 401.5Q165 383 165 358V0ZM362 612Q336 612 317.0 621.0Q298 630 282 638Q258 651 241.5 656.5Q225 662 212 662Q195 662 182.0 655.0Q169 648 154 635L121 675Q135 695 158.0 711.5Q181 728 216 728Q242 728 261.0 719.0Q280 710 296 702Q320 689 336.5 683.5Q353 678 366 678Q383 678 396.0 685.0Q409 692 424 705L457 665Q443 645 420.0 628.5Q397 612 362 612Z" fill="#0b1f2a"/></g>
<g transform="translate(726.6,470.0) scale(0.0300,-0.0300)"><path d="M280 -12Q228 -12 185.0 7.0Q142 26 111.5 61.5Q81 97 64.0 146.5Q47 196 47 258Q47 319 64.0 369.0Q81 419 111.5 454.5Q142 490 185.0 509.0Q228 528 280 528Q332 528 374.5 509.0Q417 490 448.0 454.5Q479 419 496.0 369.0Q513 319 513 258Q513 196 496.0 146.5Q479 97 448.0 61.5Q417 26 374.5 7.0Q332 -12 280 -12ZM280 59Q345 59 386.0 99.0Q427 139 427 221V295Q427 377 386.0 417.0Q345 457 280 457Q215 457 174.0 417.0Q133 377 133 295V221Q133 139 174.0 99.0Q215 59 280 59Z" fill="#0b1f2a"/></g>
<g transform="translate(743.4,470.0) scale(0.0300,-0.0300)"><path d="M85 0V516H165V421H170Q184 458 220.0 487.0Q256 516 319 516H350V436H303Q238 436 201.5 411.5Q165 387 165 350V0Z" fill="#0b1f2a"/></g>
<g transform="translate(20.0,560.0) scale(0.0400,-0.0400)"><path d="M177 0H93V698H371Q463 698 514.5 647.0Q566 596 566 500Q566 423 530.5 373.5Q495 324 426 308L586 0H491L340 300H177ZM371 372Q421 372 448.5 398.0Q476 424 476 472V524Q476 572 448.5 598.0Q421 624 371 624H177V372Z" fill="#0b1f2a"/></g>
<g transform="translate(45.0,560.0) scale(0.0400,-0.0400)"><path d="M279 -12Q226 -12 183.5 7.0Q141 26 110.5 61.5Q80 97 63.5 146.5Q47 196 47 258Q47 319 63.5 369.0Q80 419 110.5 454.5Q141 490 183.5 509.0Q226 528 279 528Q331 528 372.0 509.0Q413 490 442.0 456.5Q471 423 486.5 377.0Q502 331 502 276V238H131V214Q131 181 141.5 152.5Q152 124 171.5 103.0Q191 82 219.5 70.0Q248 58 284 58Q333 58 369.5 81.0Q406 104 426 147L483 106Q458 53 405.0 20.5Q352 -12 279 -12ZM279 461Q246 461 219.0 449.5Q192 438 172.5 417.0Q153 396 142.0 367.5Q131 339 131 305V298H416V309Q416 378 378.5 419.5Q341 461 279 461Z" fill="#0b1f2a"/></g>
<g transform="translate(67.0,560.0) scale(0.0400,-0.0400)"><path d="M520 -57Q520 -137 457.5 -174.5Q395 -212 270 -212Q149 -212 96.0 -179.0Q43 -146 43 -85Q43 -43 65.0 -19.5Q87 4 125 15V26Q79 48 79 98Q79 137 104.0 157.5Q129 178 168 188V192Q122 214 96.5 255.0Q71 296 71 350Q71 389 85.0 422.0Q99 455 124.5 478.5Q150 502 185.5 515.0Q221 528 265 528Q320 528 363 508V517Q363 547 377.0 566.5Q391 586 423 586H500V516H402V483Q430 459 445.5 425.5Q461 392 461 350Q461 311 447.0 278.0Q433 245 407.5 221.5Q382 198 346.0 185.0Q310 172 266 172Q241 172 216 177Q190 170 169.0 156.5Q148 143 148 119Q148 96 170.0 88.0Q192 80 227 80H337Q433 80 476.5 43.5Q520 7 520 -57ZM445 -63Q445 -32 421.5 -13.5Q398 5 338 5H166Q118 -17 118 -65Q118 -99 143.5 -123.0Q169 -147 230 -147H304Q371 -147 408.0 -126.0Q445 -105 445 -63ZM266 236Q317 236 347.0 260.5Q377 285 377 336V364Q377 415 347.0 439.5Q317 464 266 464Q215 464 185.0 439.5Q155 415 155 364V336Q155 285 185.0 260.5Q215 236 266 236Z" fill="#0b1f2a"/></g>
<g transform="translate(87.9,560.0) scale(0.0400,-0.0400)"><path d="M403 84H399Q391 66 379.5 48.5Q368 31 351.0 17.5Q334 4 310.0 -4.0Q286 -12 254 -12Q174 -12 127.0 39.5Q80 91 80 185V516H160V199Q160 60 278 60Q302 60 324.5 66.0Q347 72 364.5 84.0Q382 96 392.5 114.5Q403 133 403 159V516H483V0H403Z" fill="#0b1f2a"/></g>
<g transform="translate(110.6,560.0) scale(0.0400,-0.0400)"><path d="M170 0Q128 0 106.5 23.5Q85 47 85 83V740H165V70H241V0Z" fill="#0b1f2a"/></g>
<g transform="translate(121.5,560.0) scale(0.0400,-0.0400)"><path d="M460 0Q415 0 395.5 24.0Q376 48 371 84H366Q349 36 310.0 12.0Q271 -12 217 -12Q135 -12 89.5 30.0Q44 72 44 144Q44 217 97.5 256.0Q151 295 264 295H366V346Q366 401 336.0 430.0Q306 459 244 459Q197 459 165.5 438.0Q134 417 113 382L65 427Q86 469 132.0 498.5Q178 528 248 528Q342 528 394.0 482.0Q446 436 446 354V70H505V0ZM230 56Q260 56 285.0 63.0Q310 70 328.0 83.0Q346 96 356.0 113.0Q366 130 366 150V235H260Q191 235 159.5 215.0Q128 195 128 157V136Q128 98 155.5 77.0Q183 56 230 56Z" fill="#0b1f2a"/></g>
<g transform="translate(142.9,560.0) scale(0.0400,-0.0400)"><path d="M85 0V516H165V421H170Q184 458 220.0 487.0Q256 516 319 516H350V436H303Q238 436 201.5 411.5Q165 387 165 350V0Z" fill="#0b1f2a"/></g>
<g transform="translate(260.0,560.0) scale(0.0400,-0.0400)"><path d="M620 534H615L560 421L407 142L254 421L199 534H194V0H86V698H220L407 343H413L600 698H728V0H620Z" fill="#0b1f2a"/></g>
<g transform="translate(292.6,560.0) scale(0.0400,-0.0400)"><path d="M282 -12Q226 -12 182.0 7.0Q138 26 107.0 61.5Q76 97 59.5 147.5Q43 198 43 260Q43 322 59.5 372.5Q76 423 107.0 458.5Q138 494 182.0 513.0Q226 532 282 532Q339 532 382.5 512.0Q426 492 455.0 456.5Q484 421 498.5 374.0Q513 327 513 273V232H156V215Q156 155 191.5 116.5Q227 78 293 78Q341 78 374.0 99.0Q407 120 430 156L494 93Q465 45 410.0 16.5Q355 -12 282 -12ZM282 447Q254 447 230.5 437.0Q207 427 190.5 409.0Q174 391 165.0 366.0Q156 341 156 311V304H398V314Q398 374 367.0 410.5Q336 447 282 447Z" fill="#0b1f2a"/></g>
<g transform="translate(314.8,560.0) scale(0.0400,-0.0400)"><path d="M405 86H400Q383 40 344.5 14.0Q306 -12 254 -12Q155 -12 101.0 59.5Q47 131 47 260Q47 389 101.0 460.5Q155 532 254 532Q306 532 344.5 506.5Q383 481 400 434H405V740H514V0H405ZM287 82Q337 82 371.0 106.5Q405 131 405 171V349Q405 389 371.0 413.5Q337 438 287 438Q230 438 196.0 401.5Q162 365 162 305V215Q162 155 196.0 118.5Q230 82 287 82Z" fill="#0b1f2a"/></g>
<g transform="translate(338.5,560.0) scale(0.0400,-0.0400)"><path d="M133 613Q99 613 83.5 629.0Q68 645 68 670V687Q68 712 83.5 728.0Q99 744 133 744Q167 744 182.0 728.0Q197 712 197 687V670Q197 645 182.0 629.0Q167 613 133 613ZM78 520H187V0H78Z" fill="#0b1f2a"/></g>
<g transform="translate(349.1,560.0) scale(0.0400,-0.0400)"><path d="M393 86H389Q382 67 370.5 49.0Q359 31 341.5 17.5Q324 4 299.5 -4.0Q275 -12 243 -12Q162 -12 117.5 40.0Q73 92 73 189V520H182V203Q182 82 282 82Q303 82 323.0 87.5Q343 93 358.5 104.0Q374 115 383.5 132.0Q393 149 393 172V520H502V0H393Z" fill="#0b1f2a"/></g>
<g transform="translate(372.3,560.0) scale(0.0400,-0.0400)"><path d="M78 0V520H187V434H192Q200 454 211.5 472.0Q223 490 239.5 503.5Q256 517 278.5 524.5Q301 532 331 532Q384 532 425.0 506.0Q466 480 485 426H488Q502 470 542.0 501.0Q582 532 645 532Q723 532 766.0 479.5Q809 427 809 330V0H700V317Q700 377 677.0 407.5Q654 438 604 438Q583 438 564.0 432.5Q545 427 530.5 416.0Q516 405 507.0 388.0Q498 371 498 349V0H389V317Q389 438 294 438Q274 438 254.5 432.5Q235 427 220.0 416.0Q205 405 196.0 388.0Q187 371 187 349V0Z" fill="#0b1f2a"/></g>
<g transform="translate(520.0,560.0) scale(0.0400,-0.0400)"><path d="M77 698H416Q503 698 551.5 649.0Q600 600 600 519Q600 479 589.5 451.0Q579 423 561.5 405.0Q544 387 520.5 378.5Q497 370 470 369V363Q495 363 522.5 354.0Q550 345 573.0 325.5Q596 306 611.5 275.0Q627 244 627 199Q627 158 613.5 121.5Q600 85 576.0 58.0Q552 31 519.0 15.5Q486 0 447 0H77ZM229 128H404Q434 128 451.5 144.5Q469 161 469 191V225Q469 255 451.5 271.5Q434 288 404 288H229ZM229 412H380Q410 412 427.0 429.0Q444 446 444 476V506Q444 536 427.0 553.0Q410 570 380 570H229Z" fill="#0b1f2a"/></g>
<g transform="translate(546.7,560.0) scale(0.0400,-0.0400)"><path d="M282 -12Q224 -12 178.5 7.0Q133 26 101.5 62.0Q70 98 53.0 149.0Q36 200 36 263Q36 326 53.0 377.0Q70 428 101.5 463.5Q133 499 178.5 518.0Q224 537 282 537Q340 537 385.5 518.0Q431 499 462.5 463.5Q494 428 511.0 377.0Q528 326 528 263Q528 200 511.0 149.0Q494 98 462.5 62.0Q431 26 385.5 7.0Q340 -12 282 -12ZM282 105Q326 105 350.0 132.0Q374 159 374 209V316Q374 366 350.0 393.0Q326 420 282 420Q238 420 214.0 393.0Q190 366 190 316V209Q190 159 214.0 132.0Q238 105 282 105Z" fill="#0b1f2a"/></g>
<g transform="translate(569.2,560.0) scale(0.0400,-0.0400)"><path d="M216 0Q140 0 104.5 37.0Q69 74 69 144V740H217V115H283V0Z" fill="#0b1f2a"/></g>
<g transform="translate(581.4,560.0) scale(0.0400,-0.0400)"><path d="M391 88H386Q380 67 367.0 48.5Q354 30 335.5 16.5Q317 3 293.5 -4.5Q270 -12 245 -12Q145 -12 94.0 58.5Q43 129 43 263Q43 397 94.0 467.0Q145 537 245 537Q296 537 335.5 509.0Q375 481 386 437H391V740H539V0H391ZM294 108Q336 108 363.5 128.5Q391 149 391 185V340Q391 376 363.5 396.5Q336 417 294 417Q252 417 224.5 387.5Q197 358 197 308V217Q197 167 224.5 137.5Q252 108 294 108Z" fill="#0b1f2a"/></g>
</svg>